<svg width="24" height="24" viewBox="0 0 24 24" xmlns="http://www.w3.org/2000/svg">
  <path d="M22.57,6.93 L22.26,6.57 L21.93,6.21 L21.59,5.87 L21.23,5.54 L20.87,5.23 L20.50,4.93 L20.11,4.64 L19.72,4.36 L19.31,4.10 L18.90,3.85 L18.48,3.62 L18.05,3.40 L17.61,3.19 L17.17,3.00 L16.72,2.83 L16.26,2.68 L15.80,2.53 L15.34,2.41 L14.87,2.30 L14.40,2.21 L13.92,2.13 L13.44,2.08 L12.96,2.03 L12.48,2.01 L12.00,2.00 L11.52,2.01 L11.04,2.03 L10.56,2.08 L10.08,2.13 L9.60,2.21 L9.13,2.30 L8.66,2.41 L8.20,2.53 L7.74,2.68 L7.28,2.83 L6.83,3.00 L6.39,3.19 L5.95,3.40 L5.52,3.62 L5.10,3.85 L4.69,4.10 L4.28,4.36 L3.89,4.64 L3.50,4.93 L3.13,5.23 L2.77,5.54 L2.41,5.87 L2.07,6.21 L1.74,6.57 L1.43,6.93 L2.96,8.22 L3.23,7.90 L3.51,7.60 L3.80,7.31 L4.10,7.03 L4.42,6.76 L4.74,6.50 L5.06,6.25 L5.40,6.02 L5.75,5.79 L6.10,5.58 L6.46,5.38 L6.83,5.19 L7.20,5.02 L7.58,4.86 L7.96,4.71 L8.35,4.58 L8.75,4.46 L9.15,4.35 L9.55,4.26 L9.95,4.18 L10.36,4.11 L10.77,4.06 L11.18,4.03 L11.59,4.01 L12.00,4.00 L12.41,4.01 L12.82,4.03 L13.23,4.06 L13.64,4.11 L14.05,4.18 L14.45,4.26 L14.85,4.35 L15.25,4.46 L15.65,4.58 L16.04,4.71 L16.42,4.86 L16.80,5.02 L17.17,5.19 L17.54,5.38 L17.90,5.58 L18.25,5.79 L18.60,6.02 L18.94,6.25 L19.26,6.50 L19.58,6.76 L19.90,7.03 L20.20,7.31 L20.49,7.60 L20.77,7.90 L21.04,8.22 Z" fill="currentColor"/>
  <path d="M19.58,8.97 L19.35,8.72 L19.11,8.48 L18.86,8.25 L18.60,8.02 L18.34,7.81 L18.06,7.60 L17.79,7.40 L17.50,7.21 L17.21,7.03 L16.91,6.86 L16.61,6.70 L16.30,6.55 L15.99,6.41 L15.68,6.29 L15.35,6.17 L15.03,6.06 L14.70,5.96 L14.37,5.88 L14.04,5.81 L13.70,5.74 L13.36,5.69 L13.02,5.65 L12.68,5.62 L12.34,5.61 L12.00,5.60 L11.66,5.61 L11.32,5.62 L10.98,5.65 L10.64,5.69 L10.30,5.74 L9.96,5.81 L9.63,5.88 L9.30,5.96 L8.97,6.06 L8.65,6.17 L8.32,6.29 L8.01,6.41 L7.70,6.55 L7.39,6.70 L7.09,6.86 L6.79,7.03 L6.50,7.21 L6.21,7.40 L5.94,7.60 L5.66,7.81 L5.40,8.02 L5.14,8.25 L4.89,8.48 L4.65,8.72 L4.42,8.97 L5.61,10.05 L5.81,9.83 L6.01,9.63 L6.22,9.43 L6.44,9.24 L6.66,9.06 L6.89,8.89 L7.12,8.72 L7.36,8.56 L7.61,8.41 L7.86,8.26 L8.11,8.13 L8.37,8.00 L8.63,7.89 L8.90,7.78 L9.17,7.68 L9.45,7.59 L9.72,7.51 L10.00,7.44 L10.28,7.37 L10.57,7.32 L10.85,7.28 L11.14,7.24 L11.42,7.22 L11.71,7.20 L12.00,7.20 L12.29,7.20 L12.58,7.22 L12.86,7.24 L13.15,7.28 L13.43,7.32 L13.72,7.37 L14.00,7.44 L14.28,7.51 L14.55,7.59 L14.83,7.68 L15.10,7.78 L15.37,7.89 L15.63,8.00 L15.89,8.13 L16.14,8.26 L16.39,8.41 L16.64,8.56 L16.88,8.72 L17.11,8.89 L17.34,9.06 L17.56,9.24 L17.78,9.43 L17.99,9.63 L18.19,9.83 L18.39,10.05 Z" fill="currentColor"/>
  <path d="M16.81,10.99 L16.65,10.84 L16.50,10.70 L16.33,10.56 L16.17,10.43 L16.00,10.30 L15.82,10.18 L15.64,10.06 L15.46,9.95 L15.28,9.84 L15.09,9.74 L14.90,9.65 L14.70,9.56 L14.50,9.48 L14.30,9.40 L14.10,9.33 L13.90,9.27 L13.69,9.21 L13.48,9.16 L13.27,9.12 L13.06,9.08 L12.85,9.05 L12.64,9.03 L12.43,9.01 L12.21,9.00 L12.00,9.00 L11.79,9.00 L11.57,9.01 L11.36,9.03 L11.15,9.05 L10.94,9.08 L10.73,9.12 L10.52,9.16 L10.31,9.21 L10.10,9.27 L9.90,9.33 L9.70,9.40 L9.50,9.48 L9.30,9.56 L9.10,9.65 L8.91,9.74 L8.72,9.84 L8.54,9.95 L8.36,10.06 L8.18,10.18 L8.00,10.30 L7.83,10.43 L7.67,10.56 L7.50,10.70 L7.35,10.84 L7.19,10.99 L8.04,11.84 L8.17,11.72 L8.30,11.60 L8.43,11.49 L8.57,11.38 L8.71,11.27 L8.85,11.17 L9.00,11.07 L9.15,10.98 L9.30,10.89 L9.46,10.81 L9.62,10.73 L9.78,10.66 L9.94,10.59 L10.10,10.53 L10.27,10.47 L10.44,10.42 L10.61,10.38 L10.78,10.33 L10.95,10.30 L11.12,10.27 L11.30,10.24 L11.47,10.22 L11.65,10.21 L11.82,10.20 L12.00,10.20 L12.18,10.20 L12.35,10.21 L12.53,10.22 L12.70,10.24 L12.88,10.27 L13.05,10.30 L13.22,10.33 L13.39,10.38 L13.56,10.42 L13.73,10.47 L13.90,10.53 L14.06,10.59 L14.22,10.66 L14.38,10.73 L14.54,10.81 L14.70,10.89 L14.85,10.98 L15.00,11.07 L15.15,11.17 L15.29,11.27 L15.43,11.38 L15.57,11.49 L15.70,11.60 L15.83,11.72 L15.96,11.84 Z" fill="currentColor"/>
  <path d="M15.2,13.5 V15.5 Q14.4,15.2 13.6,15.0 Q12.9,14.8 12.2,14.8 Q11.3,14.8 10.9,15.0 Q10.5,15.3 10.5,15.8 Q10.5,16.2 10.7,16.4 Q11.0,16.6 11.8,16.8 L12.8,17.0 Q14.4,17.3 15.1,18.0 Q15.8,18.6 15.8,19.8 Q15.8,21.4 14.9,22.2 Q13.9,23.0 12.0,23.0 Q11.1,23.0 10.1,22.8 Q9.2,22.7 8.3,22.3 V20.2 Q9.2,20.7 10.1,21.0 Q10.9,21.2 11.7,21.2 Q12.5,21.2 13.0,20.9 Q13.4,20.7 13.4,20.2 Q13.4,19.7 13.1,19.5 Q12.8,19.2 11.9,19.0 L11.0,18.8 Q9.5,18.5 8.9,17.8 Q8.2,17.1 8.2,16.0 Q8.2,14.5 9.1,13.8 Q10.1,13.0 11.8,13.0 Q12.6,13.0 13.4,13.1 Q14.3,13.2 15.2,13.5 Z" fill="currentColor"/>
</svg>
